<?xml version="1.0"?><svg width="128" height="128" xmlns="http://www.w3.org/2000/svg">

 <metadata id="metadata7">image/svg+xml</metadata>
 <g>
  <title>Layer 1</title>
  <g display="inline" id="layer1"/>
  <g display="inline" id="layer2">
   <path fill="#ffffff" stroke="#000000" stroke-width="4" stroke-linejoin="round" stroke-miterlimit="4" id="path3297" d="m106.708672,28.01375c-4.890503,0 -8.791039,3.967659 -8.791039,8.858149l0,10.401623c2.067719,1.021599 4.41124,1.610569 6.844925,1.610569c8.866783,0 16.03862,-7.57259 16.03862,-16.911011c0,-1.361849 -0.180801,-2.690359 -0.469749,-3.95933l-13.622757,0z"/>
   <path fill="#ffffff" stroke="#000000" stroke-width="6" stroke-linejoin="round" stroke-miterlimit="4" id="path2278" d="m80,11.23695c-13.042717,0 -23.621731,10.88772 -23.621731,24.292809c0,7.73156 3.509262,14.610001 8.992359,19.058453c-3.243637,-0.33783 -6.562149,-0.536861 -9.93187,-0.536861c-4.8629,0 -9.60524,0.451118 -14.226719,1.14082c-3.88472,-8.126831 -12.933849,-15.106331 -20.40967,-17.240318c-10.11889,11.161289 -12.09795,22.857208 -12.0022,33.283516c0.11133,12.122444 3.61855,21.560394 8.588811,28.851524c11.515829,6.473549 25.35236,10.267395 40.19722,10.267395c12.480572,0 24.223446,-2.685616 34.493099,-7.381783c6.567001,-7.888847 10.535828,-17.982193 10.535828,-28.990311c0,-7.857742 -2.0187,-15.230133 -5.569901,-21.675632c4.066589,-4.362701 6.576515,-10.26268 6.576515,-16.776802c0,-13.405088 -10.579025,-24.292809 -23.621742,-24.292809z"/>
   <path fill="#ffffff" stroke="#000000" stroke-width="2" stroke-linejoin="round" stroke-miterlimit="4" d="m89.940605,28.86706a4.002547,3.831675 0 1 1 -8.005096,0a4.002547,3.831675 0 1 1 8.005096,0z" id="path3307"/>
  </g>
 </g>
</svg>